<svg width="18" height="20" viewBox="0 0 18 20" fill="none" xmlns="http://www.w3.org/2000/svg">
<path d="M9 17.2321C9.32359 17.2321 9.58594 16.9698 9.58594 16.6462V8.77863C9.58594 8.45503 9.32359 8.19269 9 8.19269C8.67641 8.19269 8.41406 8.45503 8.41406 8.77863V16.6462C8.41406 16.9698 8.67641 17.2321 9 17.2321Z" fill="#BD0707"/>
<path d="M5.77397 16.7012C5.80444 17.024 6.09096 17.26 6.41241 17.2295C6.7346 17.1991 6.97108 16.9132 6.94065 16.591L6.19776 8.72351C6.16733 8.40136 5.88202 8.1648 5.55932 8.19527C5.23713 8.2257 5.00065 8.51152 5.03108 8.83371L5.77397 16.7012Z" fill="#BD0707"/>
<path d="M11.5878 17.2295C11.9096 17.26 12.1957 17.0237 12.2262 16.7013L12.9691 8.83375C12.9995 8.51156 12.763 8.22574 12.4408 8.19531C12.1182 8.16468 11.8328 8.4014 11.8024 8.72355L11.0595 16.5911C11.0291 16.9132 11.2656 17.1991 11.5878 17.2295Z" fill="#BD0707"/>
<path d="M1.25183 6.59668H1.6021L3.29929 19.4905C3.33765 19.7821 3.58617 20 3.88023 20H14.1199C14.4139 20 14.6624 19.7821 14.7008 19.4905L16.398 6.59668H16.7483C17.0719 6.59668 17.3342 6.33434 17.3342 6.01074V3.44711C17.3342 3.12352 17.0719 2.86117 16.7483 2.86117H11.7343V2.63027C11.7343 1.17996 10.5544 0 9.10406 0H8.89605C7.44574 0 6.26578 1.17996 6.26578 2.63027V2.86117H1.25183C0.928237 2.86117 0.665894 3.12352 0.665894 3.44711V6.01074C0.665894 6.33434 0.928198 6.59668 1.25183 6.59668ZM13.606 18.8281H4.39406L2.7841 6.59668H15.216L13.606 18.8281ZM7.43761 2.63027C7.43761 1.82613 8.09187 1.17188 8.89601 1.17188H9.10402C9.90816 1.17188 10.5624 1.82613 10.5624 2.63027V2.86117H7.43761V2.63027ZM1.83777 4.03305H16.1623V5.4248C16.0371 5.4248 1.99402 5.4248 1.83777 5.4248V4.03305Z" fill="#BD0707"/>
</svg>
